[img]http://img546.imageshack.us/img546/2285/capf.jpg[/img]
[code]
America - The First Avenger 2011 CAM XviD_ERDNA.mp4 
http://www.imdb.com/title/tt0458339/

Plot:
After being deemed unfit for military service, Steve Rogers volunteers for a top secret research project that turns him into Captain America, a superhero dedicated to defending America's ideals.

AUDiO: English

Format                           : MPEG-4
Format profile                   : Base Media / Version 2
Codec ID                         : mp42
File size                        : 1.49 GiB
Duration                         : 1h 53mn
Overall bit rate                 : 1 874 Kbps
Encoded date                     : UTC 2011-07-24 07:33:18
Tagged date                      : UTC 2011-07-24 10:35:08

Video
ID                               : 1
Format                           : AVC
Format/Info                      : Advanced Video Codec
Format profile                   : Main@L3.1
Format settings, CABAC           : Yes
Format settings, ReFrames        : 2 frames
Codec ID                         : avc1
Codec ID/Info                    : Advanced Video Coding
Duration                         : 1h 53mn
Bit rate mode                    : Variable
Bit rate                         : 1 789 Kbps
Maximum bit rate                 : 5 803 Kbps
Width                            : 896 pixels
Height                           : 564 pixels
Display aspect ratio             : 1.589
Original display aspect ratio    : 2.2
Frame rate mode                  : Constant
Frame rate                       : 29.970 fps
Standard                         : NTSC
Resolution                       : 24 bits
Colorimetry                      : 4:2:0
Scan type                        : Progressive
Bits/(Pixel*Frame)               : 0.118
Stream size                      : 1.42 GiB (95%)
Encoded date                     : UTC 2011-07-24 07:33:18
Tagged date                      : UTC 2011-07-24 10:35:08

Audio
ID                               : 2
Format                           : AAC
Format/Info                      : Advanced Audio Codec
Format version                   : Version 4
Format profile                   : LC
Format settings, SBR             : No
Codec ID                         : 40
Duration                         : 1h 53mn
Bit rate mode                    : Variable
Bit rate                         : 80.0 Kbps
Maximum bit rate                 : 88.7 Kbps
Channel(s)                       : 2 channels
Channel positions                : L R
Sampling rate                    : 48.0 KHz
Resolution                       : 16 bits
Stream size                      : 65.1 MiB (4%)
Title                            : Dolby Digital 2-ch 48KHz
Encoded date                     : UTC 2011-07-24 07:33:18
Tagged date                      : UTC 2011-07-24 10:35:08
[/code]
Screens:
[img]http://img585.imageshack.us/img585/994/47067829.png[/img]
[img]http://img339.imageshack.us/img339/5716/58332426.png[/img]
[img]http://img718.imageshack.us/img718/9816/33305313.png[/img]
[img]http://img23.imageshack.us/img23/1676/54615837.png[/img]